<?xml version="1.0" encoding="UTF-8" standalone="no"?>
<svg
   aria-hidden="true"
   role="img"
   class="iconify iconify--logos"
   width="31.88"
   height="32"
   preserveAspectRatio="xMidYMid meet"
   viewBox="0 0 256 257"
   version="1.1"
   id="svg6"
   sodipodi:docname="vite.svg"
   xml:space="preserve"
   inkscape:export-filename="vite.svg"
   inkscape:export-xdpi="96"
   inkscape:export-ydpi="96"
   inkscape:version="1.4.2 (2aeb623e1d, 2025-05-12)"
   xmlns:inkscape="http://www.inkscape.org/namespaces/inkscape"
   xmlns:sodipodi="http://sodipodi.sourceforge.net/DTD/sodipodi-0.dtd"
   xmlns="http://www.w3.org/2000/svg"
   xmlns:svg="http://www.w3.org/2000/svg"><sodipodi:namedview
     id="namedview6"
     pagecolor="#505050"
     bordercolor="#eeeeee"
     borderopacity="1"
     inkscape:showpageshadow="0"
     inkscape:pageopacity="0"
     inkscape:pagecheckerboard="0"
     inkscape:deskcolor="#505050"
     showgrid="false"
     inkscape:zoom="9.171875"
     inkscape:cx="3.8705281"
     inkscape:cy="16.190801"
     inkscape:window-width="1536"
     inkscape:window-height="795"
     inkscape:window-x="0"
     inkscape:window-y="0"
     inkscape:window-maximized="1"
     inkscape:current-layer="svg6" /><defs
     id="defs5"><linearGradient
       id="IconifyId1813088fe1fbc01fb466"
       x1="-.828%"
       x2="57.636%"
       y1="7.652%"
       y2="78.411%"><stop
         offset="0%"
         stop-color="#41D1FF"
         id="stop1" /><stop
         offset="100%"
         stop-color="#BD34FE"
         id="stop2" /></linearGradient><linearGradient
       id="IconifyId1813088fe1fbc01fb467"
       x1="188.00649"
       x2="199.00609"
       y1="3.5533929"
       y2="141.10861"
       gradientTransform="matrix(0.74063538,0,0,1.3501921,-14.448041,29.333901)"
       gradientUnits="userSpaceOnUse"><stop
         offset="0%"
         stop-color="#FFEA83"
         id="stop3" /><stop
         offset="8.333%"
         stop-color="#FFDD35"
         id="stop4" /><stop
         offset="100%"
         stop-color="#FFA800"
         id="stop5" /></linearGradient></defs><ellipse
     style="fill:#ffd4b7;fill-opacity:1;stroke-width:8.56775"
     id="path7"
     cx="138.33282"
     cy="118.64905"
     rx="90.190804"
     ry="97.633728" /><path
     style="fill:#000000"
     d="m 132.82116,196.80997 c -9.45167,-0.49104 -18.72398,-2.47417 -27.51694,-5.88526 -14.965676,-5.80566 -27.107946,-15.83019 -33.369606,-27.5496 -3.5408,-6.627 -5.04212,-12.58771 -5.03712,-19.99889 0.0116,-17.16654 6.6542,-35.0043 18.32482,-49.208672 1.06241,-1.29307 2.48404,-3.32146 3.15917,-4.50754 1.5551,-2.73202 2.61493,-4.32245 5.06548,-7.601481 4.19251,-5.60992 9.247916,-11.393364 11.220686,-12.836632 6.77491,-4.956474 19.16077,-7.938449 32.97297,-7.938449 3.52301,0 9.63555,0.31066 10.36113,0.52659 0.16912,0.0503 -1.04597,2.213836 -3.14572,5.601028 l -3.42127,5.519016 -5.10938,0.138839 c -2.81016,0.07636 -6.24796,0.281515 -7.63957,0.455898 -6.9322,0.868676 -13.26128,2.80247 -15.83451,4.8381 l -0.82915,0.65592 0.99788,0.65315 c 3.21995,2.10757 9.0415,3.81848 16.1322,4.741121 3.08981,0.40204 14.93223,0.34027 17.85412,-0.0931 1.24365,-0.18447 2.33735,-0.41464 2.43044,-0.51149 0.0931,-0.0969 2.72289,-4.275241 5.844,-9.28531 5.83855,-9.37215 7.45841,-11.814089 9.25532,-13.952362 3.42624,-4.07713 8.20887,-7.60948 13.37426,-9.87794 2.08845,-0.91718 18.37431,-6.61707 18.90643,-6.61707 0.25655,0 4.77853,10.68401 4.5936,10.85324 -0.0502,0.0459 -4.03574,1.44451 -8.85682,3.10799 -4.82109,1.66347 -9.34674,3.32387 -10.05702,3.68978 -3.41836,1.760973 -5.94422,3.740755 -8.07654,6.330424 -2.14754,2.608158 -2.13769,2.326936 -0.15702,4.48284 4.54415,4.946187 10.24951,12.521488 12.57095,16.691088 0.79167,1.42195 1.97596,3.20138 2.63176,3.95431 0.6558,0.75292 1.96858,2.40549 2.91728,3.67236 8.39891,11.215682 13.45607,23.226822 15.58765,37.021902 0.68099,4.4072 0.73992,13.89432 0.10566,17.00935 -2.11695,10.39685 -6.92299,18.59535 -15.50751,26.45383 -5.31447,4.865 -10.65635,8.3753 -17.74972,11.66383 -12.6324,5.85648 -27.23735,8.57008 -41.99791,7.80323 z m 12.72659,-12.02157 c 20.96224,-2.04241 39.14343,-12.57278 46.65481,-27.02199 1.43349,-2.75751 2.18411,-4.75168 2.91919,-7.75535 0.47001,-1.92055 0.52868,-2.69753 0.52001,-6.88641 -0.007,-3.44474 -0.12014,-5.37422 -0.41789,-7.13487 -0.86783,-5.13161 -2.38193,-10.29776 -4.41774,-15.07344 -1.04654,-2.45501 -4.94361,-9.88466 -6.26155,-11.93746 l -0.7027,-1.09452 -1.96267,1.44109 c -4.7359,3.47733 -10.65312,6.03884 -18.44544,7.98486 -13.98738,3.49314 -32.38401,3.85121 -47.23744,0.91941 -9.67358,-1.9094 -17.312026,-4.95963 -22.858556,-9.12804 l -1.64757,-1.23821 -1.31394,2.14239 c -5.22382,8.51751 -8.63604,17.2992 -10.09632,25.98392 -0.5931,3.5273 -0.59046,10.9432 0.005,13.53528 2.28097,9.93231 9.50831,19.00589 20.469076,25.69796 8.09382,4.94167 18.44447,8.42184 28.05443,9.43268 1.19814,0.12603 2.48799,0.26217 2.86635,0.30254 1.97942,0.21117 11.10985,0.0994 13.87313,-0.16984 z m -1.71981,-76.50347 c 13.06079,-0.79017 24.25089,-3.8152 29.95617,-8.09809 0.65748,-0.493556 1.49569,-1.303956 1.8627,-1.800886 0.83422,-1.129536 0.76841,-1.841036 -0.36843,-3.983426 -0.91065,-1.71616 -3.76216,-5.83867 -4.03855,-5.83867 -0.098,0 -0.88835,0.43591 -1.75636,0.96869 -4.69475,2.88165 -11.39933,5.08947 -18.68391,6.15261 -4.35901,0.63617 -7.65899,0.85153 -13.04828,0.85153 -5.39234,0 -11.86346,-0.98153 -16.2313,-1.61902 -7.22031,-1.05383 -10.84421,-2.52684 -15.50088,-5.38512 -0.868,-0.53278 -1.65837,-0.96869 -1.75636,-0.96869 -0.26186,0 -3.08979,4.06333 -4.02972,5.79014 -0.445536,0.81853 -0.866906,1.87598 -0.936366,2.3499 -0.10776,0.735236 -0.021,0.992676 0.59119,1.754496 5.225046,6.502046 25.168876,10.962186 43.940096,9.826536 z"
     id="path6"
     sodipodi:nodetypes="ssssssssssscssscssssssssssssssssssssssssscssscsssscsscssssssssssssssssssss"
     inkscape:label="path6" /><text
     xml:space="preserve"
     style="font-size:96.375px;text-align:start;writing-mode:lr-tb;direction:ltr;text-anchor:start;fill:#ffd4b7;fill-opacity:1;stroke-width:8.03125"
     x="51.644569"
     y="81.43441"
     id="text8"><tspan
       sodipodi:role="line"
       id="tspan8"
       style="fill:#1a1a1a;stroke-width:8.03125"
       x="51.644569"
       y="81.43441" /></text><text
     xml:space="preserve"
     style="font-size:75.3525px;text-align:start;writing-mode:lr-tb;direction:ltr;text-anchor:start;fill:#1a1a1a;fill-opacity:1;stroke-width:6.27938"
     x="95.747604"
     y="196.91138"
     id="text9"
     transform="scale(1.1357444,0.88047981)"><tspan
       sodipodi:role="line"
       id="tspan9"
       style="stroke-width:6.27938"
       x="95.747604"
       y="196.91138">R</tspan></text></svg>
